<?xml version="1.0" standalone="no"?>
<!DOCTYPE svg PUBLIC "-//W3C//DTD SVG 20010904//EN"
 "http://www.w3.org/TR/2001/REC-SVG-20010904/DTD/svg10.dtd">
<svg version="1.0" xmlns="http://www.w3.org/2000/svg"
 width="280.000000pt" height="280.000000pt" viewBox="0 0 280.000000 280.000000"
 preserveAspectRatio="xMidYMid meet">
<metadata>
Created by potrace 1.11, written by Peter Selinger 2001-2013
</metadata>
<g transform="translate(0.000000,280.000000) scale(0.100000,-0.100000)"
fill="#000000" stroke="none">
<path d="M1139 2786 c-2 -2 -25 -6 -51 -9 -124 -15 -276 -70 -371 -136 -96
-66 -167 -161 -167 -224 0 -37 14 -34 29 8 31 85 193 177 384 216 179 36 370
28 464 -19 109 -56 153 -191 113 -348 -34 -134 -109 -253 -275 -439 -74 -83
-173 -204 -194 -238 -12 -20 -27 -35 -31 -32 -13 8 -67 154 -74 197 -14 91
-17 138 -10 139 5 0 16 2 24 3 8 2 44 6 80 10 148 15 186 28 125 44 -38 10
-136 23 -200 26 -29 2 -30 4 -29 46 0 25 4 70 8 100 7 48 6 53 -7 40 -16 -17
-50 -103 -66 -165 -45 -176 -30 -362 42 -518 26 -56 32 -78 24 -92 -21 -38
-59 -144 -82 -230 -21 -80 -28 -111 -40 -205 -7 -46 -7 -275 0 -315 16 -102
40 -178 87 -274 98 -199 261 -321 468 -349 106 -14 210 7 113 23 -66 11 -183
55 -237 90 -62 39 -139 118 -178 180 -77 123 -111 268 -112 470 -1 189 13 298
55 442 l22 72 60 -49 c117 -94 234 -137 407 -147 417 -23 716 267 723 702 4
272 -57 409 -247 554 -113 87 -138 122 -131 188 10 97 108 154 182 106 28 -19
53 -68 53 -108 0 -28 15 -34 24 -9 13 33 5 98 -16 135 -47 84 -173 104 -261
43 -108 -76 -131 -235 -50 -343 32 -43 36 -46 135 -117 101 -72 159 -132 196
-202 113 -214 83 -474 -75 -636 -74 -76 -194 -140 -310 -167 -74 -16 -284 -11
-315 8 -5 2 -18 6 -30 8 -80 15 -278 148 -278 187 0 7 18 49 41 93 39 75 85
147 262 406 39 58 77 114 83 125 53 94 69 128 93 200 81 240 1 429 -208 490
-50 14 -241 30 -252 20z"/>
</g>
</svg>
